<svg width="17" height="17" viewBox="0 0 17 17" fill="none" xmlns="http://www.w3.org/2000/svg">
<g clip-path="url(#clip0)">
<path d="M16.9099 12.4099C16.8893 12.3655 16.8701 12.3287 16.8523 12.2992C16.5573 11.768 15.9937 11.116 15.1617 10.343L15.1441 10.3253L15.1353 10.3166L15.1264 10.3077H15.1175C14.7399 9.94774 14.5008 9.70571 14.4006 9.5818C14.2174 9.34575 14.1764 9.10682 14.2765 8.86473C14.3473 8.68182 14.613 8.29554 15.0731 7.70536C15.3152 7.39259 15.5068 7.14191 15.6484 6.95305C16.6693 5.59579 17.1119 4.72849 16.9761 4.3508L16.9234 4.26254C16.888 4.2094 16.7965 4.16079 16.6492 4.11646C16.5015 4.07222 16.3127 4.0649 16.0825 4.09438L13.5334 4.11199C13.4921 4.09736 13.4332 4.09872 13.3563 4.11646C13.2796 4.13419 13.2412 4.14309 13.2412 4.14309L13.1969 4.16525L13.1617 4.19188C13.1321 4.20949 13.0997 4.24046 13.0642 4.28473C13.029 4.32885 12.9995 4.38062 12.976 4.43962C12.6984 5.15362 12.3829 5.81746 12.0288 6.4311C11.8104 6.79702 11.6099 7.11413 11.4268 7.38264C11.2439 7.65105 11.0905 7.84881 10.9666 7.97557C10.8426 8.10246 10.7307 8.20412 10.6302 8.28091C10.5299 8.35773 10.4533 8.39019 10.4002 8.37832C10.347 8.36644 10.297 8.35466 10.2496 8.34288C10.167 8.28974 10.1006 8.21748 10.0505 8.12602C10.0003 8.03457 9.96641 7.91946 9.94871 7.78079C9.9311 7.64203 9.92068 7.52267 9.91771 7.42232C9.91495 7.32209 9.91622 7.18032 9.9222 6.99741C9.92834 6.81441 9.9311 6.69059 9.9311 6.62567C9.9311 6.4014 9.93547 6.15801 9.94424 5.89543C9.95317 5.63284 9.96039 5.42479 9.96644 5.27152C9.97246 5.11809 9.97525 4.95577 9.97525 4.78464C9.97525 4.61351 9.96483 4.4793 9.94424 4.38189C9.92391 4.28461 9.89269 4.19018 9.85155 4.09863C9.81016 4.00718 9.74958 3.93643 9.6701 3.88621C9.59045 3.83605 9.49143 3.79624 9.3736 3.76667C9.06082 3.69589 8.66254 3.6576 8.17858 3.65165C7.08109 3.63987 6.37589 3.71074 6.06315 3.86417C5.93923 3.92899 5.8271 4.01756 5.72684 4.1296C5.6206 4.25947 5.60578 4.33034 5.68248 4.34199C6.03658 4.39504 6.28726 4.52193 6.4348 4.72254L6.48796 4.82884C6.52932 4.90554 6.57061 5.04133 6.61194 5.23602C6.6532 5.43071 6.67983 5.64608 6.69155 5.882C6.721 6.31283 6.721 6.68163 6.69155 6.98842C6.66201 7.29534 6.6341 7.53427 6.60747 7.70539C6.58084 7.87652 6.54104 8.01519 6.48796 8.12137C6.43479 8.22759 6.39942 8.2925 6.38169 8.31606C6.36399 8.33963 6.34923 8.35448 6.33751 8.3603C6.26081 8.38969 6.18105 8.40467 6.09849 8.40467C6.01581 8.40467 5.91555 8.36331 5.79756 8.28066C5.67959 8.19801 5.55717 8.08448 5.43028 7.93989C5.30339 7.79527 5.16029 7.59317 5.00091 7.33356C4.84165 7.07395 4.67641 6.76713 4.50528 6.41309L4.3637 6.15633C4.27519 5.99116 4.15428 5.75065 4.00086 5.43502C3.84734 5.11927 3.71164 4.81384 3.59368 4.5188C3.54653 4.39488 3.47569 4.30055 3.38129 4.23563L3.33699 4.209C3.30753 4.18544 3.26026 4.16042 3.1954 4.13376C3.13045 4.10713 3.06268 4.08803 2.99181 4.07628L0.566586 4.09389C0.318759 4.09389 0.150606 4.15003 0.0620653 4.26217L0.0266304 4.31521C0.00892848 4.34475 0 4.39194 0 4.45689C0 4.5218 0.0177019 4.60148 0.0531368 4.69582C0.407176 5.5279 0.792185 6.33038 1.20817 7.10337C1.62415 7.87637 1.98562 8.49904 2.29239 8.97082C2.59921 9.44294 2.91195 9.88853 3.23062 10.3074C3.54929 10.7263 3.76022 10.9949 3.86343 11.1128C3.96675 11.231 4.04792 11.3193 4.10691 11.3783L4.32823 11.5907C4.46985 11.7324 4.67781 11.902 4.9522 12.0997C5.22666 12.2974 5.53051 12.4921 5.8639 12.684C6.19735 12.8757 6.58528 13.032 7.02789 13.153C7.47044 13.274 7.90117 13.3226 8.32016 13.2992H9.33807C9.54451 13.2814 9.70091 13.2164 9.80722 13.1044L9.84243 13.06C9.86612 13.0248 9.88829 12.9701 9.90875 12.8965C9.92946 12.8227 9.93975 12.7415 9.93975 12.6531C9.9337 12.3994 9.95302 12.1707 9.99716 11.9672C10.0413 11.7637 10.0916 11.6103 10.1478 11.5069C10.204 11.4037 10.2674 11.3166 10.338 11.246C10.4088 11.1752 10.4592 11.1323 10.4888 11.1176C10.5181 11.1027 10.5416 11.0926 10.5593 11.0866C10.7009 11.0394 10.8676 11.0851 11.0596 11.2239C11.2514 11.3626 11.4313 11.5338 11.5995 11.7373C11.7677 11.941 11.9698 12.1695 12.2058 12.4232C12.4419 12.6769 12.6484 12.8656 12.8254 12.9897L13.0023 13.0959C13.1205 13.1668 13.2739 13.2317 13.4628 13.2907C13.6513 13.3496 13.8165 13.3644 13.9583 13.3349L16.2241 13.2996C16.4482 13.2996 16.6226 13.2625 16.7463 13.1888C16.8703 13.1151 16.9439 13.0338 16.9676 12.9454C16.9913 12.857 16.9926 12.7566 16.9721 12.6444C16.9511 12.5324 16.9305 12.4541 16.9099 12.4099Z" fill="#2D2D2D"/>
</g>
<defs>
<clipPath id="clip0">
<rect width="17" height="17" fill="white"/>
</clipPath>
</defs>
</svg>
