<svg width="16" height="16" viewBox="0 0 16 16" fill="none" xmlns="http://www.w3.org/2000/svg">
<path d="M8.58914 1.68796C8.35848 1.25196 7.64114 1.25196 7.41048 1.68796L1.41048 13.0213C1.35647 13.1229 1.32969 13.2367 1.33276 13.3517C1.33582 13.4667 1.36863 13.579 1.42798 13.6775C1.48733 13.7761 1.57119 13.8576 1.67141 13.9141C1.77162 13.9706 1.88476 14.0002 1.99981 14H13.9998C14.1148 14.0002 14.2278 13.9706 14.328 13.9142C14.4281 13.8577 14.5119 13.7762 14.5712 13.6777C14.6305 13.5792 14.6633 13.4671 14.6663 13.3521C14.6693 13.2372 14.6425 13.1234 14.5885 13.022L8.58914 1.68796ZM8.66648 12H7.33314V10.6666H8.66648V12ZM7.33314 9.33329V5.99996H8.66648L8.66714 9.33329H7.33314Z" fill="#EF445D"/>
</svg>
