<svg width="16" height="16" viewBox="0 0 16 16" fill="none" xmlns="http://www.w3.org/2000/svg">
<path d="M7.33333 13.3333H4C3.82319 13.3333 3.65362 13.263 3.5286 13.138C3.40357 13.013 3.33333 12.8434 3.33333 12.6666V3.33325C3.33333 3.15644 3.40357 2.98687 3.5286 2.86185C3.65362 2.73682 3.82319 2.66659 4 2.66659H7.33333V4.66659C7.33333 5.19702 7.54405 5.70573 7.91912 6.0808C8.29419 6.45587 8.8029 6.66659 9.33333 6.66659H11.3333V7.99992C11.3333 8.17673 11.4036 8.3463 11.5286 8.47132C11.6536 8.59635 11.8232 8.66659 12 8.66659C12.1768 8.66659 12.3464 8.59635 12.4714 8.47132C12.5964 8.3463 12.6667 8.17673 12.6667 7.99992V5.99992V5.95992C12.6597 5.89867 12.6463 5.83834 12.6267 5.77992V5.71992C12.5931 5.65019 12.5505 5.58518 12.5 5.52659L8.5 1.52659C8.4414 1.47605 8.3764 1.43346 8.30667 1.39992C8.28677 1.39709 8.26657 1.39709 8.24667 1.39992L8.04 1.33325H4C3.46957 1.33325 2.96086 1.54397 2.58579 1.91904C2.21071 2.29411 2 2.80282 2 3.33325V12.6666C2 13.197 2.21071 13.7057 2.58579 14.0808C2.96086 14.4559 3.46957 14.6666 4 14.6666H7.33333C7.51014 14.6666 7.67971 14.5963 7.80474 14.4713C7.92976 14.3463 8 14.1767 8 13.9999C8 13.8231 7.92976 13.6535 7.80474 13.5285C7.67971 13.4035 7.51014 13.3333 7.33333 13.3333ZM8.66667 3.60659L10.3933 5.33325H9.33333C9.15652 5.33325 8.98695 5.26301 8.86193 5.13799C8.7369 5.01297 8.66667 4.8434 8.66667 4.66659V3.60659ZM12.6667 9.99992H8.94L9.80667 9.13992C9.9322 9.01438 10.0027 8.84412 10.0027 8.66659C10.0027 8.48905 9.9322 8.31879 9.80667 8.19325C9.68113 8.06772 9.51087 7.99719 9.33333 7.99719C9.1558 7.99719 8.98554 8.06772 8.86 8.19325L6.86 10.1933C6.80111 10.2581 6.75376 10.3325 6.72 10.4133C6.65332 10.5756 6.65332 10.7576 6.72 10.9199C6.75054 11.0023 6.79826 11.0773 6.86 11.1399L8.86 13.1399C8.92197 13.2024 8.99571 13.252 9.07695 13.2858C9.15819 13.3197 9.24533 13.3371 9.33333 13.3371C9.42134 13.3371 9.50848 13.3197 9.58972 13.2858C9.67096 13.252 9.74469 13.2024 9.80667 13.1399C9.86915 13.0779 9.91875 13.0042 9.95259 12.923C9.98644 12.8417 10.0039 12.7546 10.0039 12.6666C10.0039 12.5786 9.98644 12.4914 9.95259 12.4102C9.91875 12.329 9.86915 12.2552 9.80667 12.1933L8.94 11.3333H12.6667C12.8435 11.3333 13.013 11.263 13.1381 11.138C13.2631 11.013 13.3333 10.8434 13.3333 10.6666C13.3333 10.4898 13.2631 10.3202 13.1381 10.1952C13.013 10.0702 12.8435 9.99992 12.6667 9.99992Z" fill="#9899A8"/>
</svg>
