<svg width="15" height="15" viewBox="0 0 15 15" fill="none" xmlns="http://www.w3.org/2000/svg">
<path d="M13.2167 6.37921L11.8573 5.97341C11.7633 5.64525 11.634 5.32823 11.4717 5.0279L12.1373 3.78211C12.1622 3.73508 12.1714 3.68126 12.1633 3.62863C12.1553 3.57599 12.1305 3.52736 12.0926 3.48993L11.1228 2.51602C11.0853 2.47815 11.0367 2.45335 10.9841 2.44531C10.9314 2.43727 10.8776 2.44641 10.8306 2.47138L9.5929 3.13283C9.28962 2.96266 8.96844 2.82657 8.63522 2.72703L8.22943 1.38385C8.21226 1.33435 8.17983 1.29157 8.13681 1.26167C8.09378 1.23177 8.04238 1.2163 7.99001 1.21747H6.61841C6.56571 1.21771 6.51447 1.23477 6.47214 1.26615C6.42981 1.29754 6.3986 1.34161 6.38305 1.39196L5.97725 2.73109C5.64126 2.8301 5.31733 2.9662 5.01145 3.13689L3.79406 2.4795C3.74704 2.45453 3.69322 2.44538 3.64058 2.45342C3.58795 2.46147 3.53931 2.48626 3.50189 2.52414L2.5158 3.48588C2.47793 3.5233 2.45313 3.57194 2.44509 3.62457C2.43705 3.6772 2.44619 3.73102 2.47117 3.77805L3.12856 4.99544C2.95814 5.30003 2.82205 5.62258 2.72276 5.95718L1.37957 6.36298C1.32922 6.37853 1.28515 6.40974 1.25376 6.45207C1.22238 6.4944 1.20532 6.54564 1.20508 6.59834V7.96993C1.20532 8.02263 1.22238 8.07387 1.25376 8.1162C1.28515 8.15853 1.32922 8.18975 1.37957 8.20529L2.73088 8.61109C2.83125 8.94012 2.96732 9.25718 3.13667 9.5566L2.47117 10.8308C2.44619 10.8778 2.43705 10.9317 2.44509 10.9843C2.45313 11.0369 2.47793 11.0856 2.5158 11.123L3.48566 12.0928C3.52308 12.1307 3.57172 12.1555 3.62435 12.1635C3.67698 12.1716 3.73081 12.1624 3.77783 12.1375L5.03174 11.4679C5.32837 11.628 5.64126 11.7558 5.96508 11.8494L6.37087 13.2169C6.38642 13.2672 6.41764 13.3113 6.45997 13.3427C6.5023 13.3741 6.55354 13.3911 6.60624 13.3914H7.97783C8.03053 13.3911 8.08177 13.3741 8.1241 13.3427C8.16643 13.3113 8.19764 13.2672 8.21319 13.2169L8.61899 11.8453C8.94004 11.7513 9.25019 11.6234 9.54421 11.4638L10.8062 12.1375C10.8533 12.1624 10.9071 12.1716 10.9597 12.1635C11.0124 12.1555 11.061 12.1307 11.0984 12.0928L12.0683 11.123C12.1061 11.0856 12.1309 11.0369 12.139 10.9843C12.147 10.9317 12.1379 10.8778 12.1129 10.8308L11.4393 9.57283C11.6005 9.27769 11.7298 8.96617 11.8248 8.64356L13.1923 8.23776C13.2427 8.22221 13.2867 8.191 13.3181 8.14867C13.3495 8.10633 13.3666 8.05509 13.3668 8.0024V6.61863C13.3692 6.56817 13.3561 6.51818 13.3293 6.47539C13.3024 6.43259 13.2631 6.39903 13.2167 6.37921ZM7.30421 9.53631C6.86278 9.53631 6.43127 9.40541 6.06424 9.16017C5.69721 8.91493 5.41114 8.56635 5.24222 8.15853C5.07329 7.75071 5.02909 7.30195 5.11521 6.86901C5.20133 6.43606 5.41389 6.03838 5.72603 5.72625C6.03816 5.41411 6.43585 5.20154 6.86879 5.11543C7.30173 5.02931 7.75049 5.07351 8.15831 5.24243C8.56614 5.41136 8.91471 5.69743 9.15995 6.06446C9.40519 6.43149 9.53609 6.863 9.53609 7.30443C9.53609 7.89636 9.30095 8.46405 8.88239 8.88261C8.46383 9.30117 7.89614 9.53631 7.30421 9.53631Z" fill="white"/>
</svg>
